<?xml version="1.0" standalone="no"?><!DOCTYPE svg PUBLIC "-//W3C//DTD SVG 1.1//EN" "http://www.w3.org/Graphics/SVG/1.1/DTD/svg11.dtd"><svg t="1610802934308" class="icon" viewBox="0 0 1144 1024" version="1.1" xmlns="http://www.w3.org/2000/svg" p-id="2576" xmlns:xlink="http://www.w3.org/1999/xlink" width="17.875" height="16"><defs><style type="text/css"></style></defs><path d="M990.750118 0C1075.681882 0 1144.470588 70.294588 1144.470588 156.973176v658.853648c0 86.738824-68.848941 156.973176-153.72047 156.973176H153.720471C68.788706 972.8 0 902.505412 0 815.826824V156.973176C0 70.234353 68.848941 0 153.720471 0zM84.208941 149.323294l-0.361412 7.649882v658.853648c0 39.393882 31.322353 71.378824 69.872942 71.378823h837.029647c38.550588 0 69.872941-31.924706 69.872941-71.378823L1060.562824 166.851765l-380.928 360.508235a150.648471 150.648471 0 0 1-206.72753 7.469176l-8.071529-7.469176-380.626824-377.976471z m906.541177-63.728941H153.720471c-2.951529 0-5.903059 0.240941-8.734118 0.602353L523.444706 462.004706c25.419294 25.238588 64.150588 27.045647 91.557647 5.421176l6.023529-5.421176 379.602824-375.747765a69.089882 69.089882 0 0 0-9.878588-0.722823z" p-id="2577"></path></svg>