<?xml version="1.0" standalone="no"?><!DOCTYPE svg PUBLIC "-//W3C//DTD SVG 1.1//EN" "http://www.w3.org/Graphics/SVG/1.1/DTD/svg11.dtd"><svg t="1611713041789" class="icon" viewBox="0 0 1024 1024" version="1.1" xmlns="http://www.w3.org/2000/svg" p-id="2782" xmlns:xlink="http://www.w3.org/1999/xlink" width="64" height="64"><defs><style type="text/css"></style></defs><path d="M488.1 161.5L302.9 320.3c-6.6 5.7-15.1 8.8-23.8 8.8H164.9c-30.4 0-55.1 24.7-55.1 55.1v255.5c0 30.4 24.7 55.1 55.1 55.1H279c8.7 0 17.2 3.1 23.8 8.8l185.3 158.8c23.8 20.4 60.5 3.5 60.5-27.8V189.3c0-31.2-36.7-48.1-60.5-27.8zM731.4 512c0-69.7-32-133.6-87.8-175.5-16.2-12.1-39.1-8.9-51.2 7.3-12.1 16.1-8.9 39.1 7.3 51.2 37.2 27.9 58.5 70.6 58.5 117 0 46.5-21.3 89.1-58.5 117-16.1 12.1-19.4 35.1-7.3 51.2 7.2 9.6 18.2 14.6 29.3 14.6 7.6 0 15.3-2.4 21.9-7.3 55.9-41.9 87.8-105.8 87.8-175.5z" fill="#1296db" p-id="2783"></path><path d="M715.2 207.9c-16.8-11.2-39.5-6.8-50.7 10-11.2 16.8-6.7 39.5 10.1 50.8 81.4 54.5 130 145.5 130 243.3S756 700.8 674.5 755.3c-16.8 11.2-21.3 34-10.1 50.8 7.1 10.5 18.6 16.2 30.4 16.2 7 0 14.1-2 20.3-6.2C817 748 877.7 634.3 877.7 512S817 276 715.2 207.9z" fill="#1296db" p-id="2784"></path></svg>