<?xml version="1.0" standalone="no"?><!DOCTYPE svg PUBLIC "-//W3C//DTD SVG 1.1//EN" "http://www.w3.org/Graphics/SVG/1.1/DTD/svg11.dtd"><svg t="1611712554241" class="icon" viewBox="0 0 1024 1024" version="1.1" xmlns="http://www.w3.org/2000/svg" p-id="1870" xmlns:xlink="http://www.w3.org/1999/xlink" width="64" height="64"><defs><style type="text/css"></style></defs><path d="M298.666667 437.333333c-2.133333 0-4.266667 4.266667-4.266667 8.533334v134.4c0 4.266667 2.133333 6.4 4.266667 8.533333l236.8 119.466667s4.266667-2.133333 4.266666-8.533334V324.266667c0-4.266667-2.133333-6.4-4.266666-8.533334L298.666667 437.333333z" fill="#3D7EFF" p-id="1871"></path><path d="M512 0C228.266667 0 0 228.266667 0 512s228.266667 512 512 512 512-228.266667 512-512S795.733333 0 512 0z m68.266667 699.733333c0 27.733333-21.333333 46.933333-42.666667 46.933334-6.4 0-12.8-2.133333-17.066667-4.266667l-236.8-119.466667c-14.933333-8.533333-25.6-25.6-25.6-42.666666v-134.4c0-19.2 10.666667-36.266667 25.6-42.666667l236.8-119.466667c6.4-2.133333 12.8-4.266667 17.066667-4.266666 23.466667 0 42.666667 21.333333 42.666667 46.933333v373.333333z m51.2-91.733333c-6.4 0-10.666667-2.133333-14.933334-6.4-6.4-8.533333-6.4-21.333333 2.133334-27.733333 17.066667-14.933333 27.733333-38.4 27.733333-61.866667s-10.666667-46.933333-27.733333-61.866667c-8.533333-6.4-8.533333-19.2-2.133334-27.733333 6.4-8.533333 19.2-8.533333 27.733334-2.133333 25.6 23.466667 40.533333 55.466667 40.533333 91.733333s-14.933333 68.266667-40.533333 91.733333c-4.266667 4.266667-8.533333 4.266667-12.8 4.266667z m53.333333 72.533333c-4.266667 2.133333-8.533333 4.266667-12.8 4.266667-6.4 0-12.8-2.133333-17.066667-8.533333-6.4-8.533333-4.266667-21.333333 4.266667-27.733334 42.666667-32 68.266667-81.066667 68.266667-136.533333 0-53.333333-25.6-104.533333-68.266667-136.533333-8.533333-6.4-10.666667-19.2-4.266667-27.733334s19.2-10.666667 27.733334-4.266666c53.333333 38.4 83.2 102.4 83.2 168.533333s-29.866667 130.133333-81.066667 168.533333z" fill="#3D7EFF" p-id="1872"></path></svg>